<svg width="274" height="180" viewBox="0 0 274 180" fill="none" xmlns="http://www.w3.org/2000/svg">
<path d="M137.48 179.94C108.262 179.748 79.4099 173.429 52.7868 161.39C51.2019 160.684 49.8568 159.532 48.9151 158.074C47.9735 156.617 47.4759 154.917 47.4832 153.182V80.3449C47.4859 77.9587 48.4349 75.671 50.1221 73.9837C51.8093 72.2964 54.0969 71.3474 56.4829 71.3447H218.477C220.863 71.3474 223.151 72.2965 224.838 73.9838C226.525 75.671 227.474 77.9587 227.477 80.3449V153.182C227.484 154.917 226.987 156.617 226.045 158.074C225.103 159.532 223.758 160.684 222.173 161.39C195.55 173.429 166.698 179.748 137.48 179.94V179.94Z" fill="#57595D" fill-opacity="0.54"/>
<path d="M137.458 120.933C136.257 120.934 135.068 120.695 133.961 120.23L5.50126 66.0303C3.84467 65.3314 2.43539 64.1523 1.45514 62.645C0.474877 61.1377 -0.0314331 59.3714 0.00151136 57.5736C0.0344558 55.7759 0.605178 54.0292 1.64 52.5588C2.67483 51.0885 4.12632 49.9618 5.8074 49.3241L134.268 0.587919C136.338 -0.200657 138.625 -0.195792 140.691 0.601591L267.431 49.3376C269.102 49.9805 270.544 51.1074 271.571 52.5743C272.599 54.0412 273.165 55.7813 273.198 57.5719C273.232 59.3626 272.73 61.1224 271.757 62.6262C270.785 64.13 269.385 65.3095 267.739 66.0137L140.998 120.213C139.878 120.689 138.674 120.935 137.458 120.933V120.933Z" fill="#57595D" fill-opacity="0.54"/>
<path d="M62.4827 166.346C69.1099 166.346 74.4823 160.973 74.4823 154.346C74.4823 147.718 69.1099 142.346 62.4827 142.346C55.8556 142.346 50.4832 147.718 50.4832 154.346C50.4832 160.973 55.8556 166.346 62.4827 166.346Z" fill="white"/>
<path opacity="0.2" d="M268.177 58.3204L141.435 112.519C140.447 112.942 139.384 113.161 138.309 113.164C137.234 113.166 136.17 112.952 135.18 112.535L6.72082 58.3362C5.10756 57.6718 3.76166 56.4888 2.89576 54.974C2.32932 55.9563 1.97834 57.0478 1.86607 58.1761C1.75379 59.3044 1.88283 60.4437 2.2446 61.5183C2.60636 62.593 3.19256 63.5783 3.96432 64.409C4.73608 65.2397 5.6757 65.8967 6.72082 66.3363L135.18 120.535C136.17 120.952 137.234 121.166 138.309 121.164C139.384 121.161 140.447 120.942 141.435 120.52L268.177 66.3205C269.216 65.8769 270.15 65.2179 270.917 64.3868C271.683 63.5558 272.264 62.5716 272.623 61.4993C272.981 60.427 273.107 59.2909 272.994 58.1661C272.881 57.0413 272.53 55.9533 271.965 54.9739C271.106 56.4765 269.774 57.653 268.177 58.3204V58.3204Z" fill="black" fill-opacity="0.58"/>
<path d="M63.4909 154.299C64.0213 154.299 64.5301 154.088 64.9051 153.713C65.2802 153.338 65.4908 152.829 65.4908 152.299V85.3752L131.451 61.3445C131.981 61.3524 132.493 61.1493 132.874 60.7798C133.254 60.4103 133.473 59.9047 133.481 59.3743C133.489 58.8439 133.285 58.332 132.916 57.9513C132.547 57.5707 132.041 57.3524 131.511 57.3445L65.5504 81.3751C65.0196 81.3629 64.4919 81.4585 63.9991 81.6563C63.5064 81.854 63.0589 82.1497 62.6838 82.5255C62.3047 82.8967 62.0038 83.3402 61.799 83.8296C61.5941 84.319 61.4894 84.8446 61.491 85.3752V152.299C61.491 152.829 61.7017 153.338 62.0768 153.713C62.4518 154.088 62.9605 154.299 63.4909 154.299V154.299Z" fill="white"/>
</svg>
