<svg width="187" height="424" viewBox="0 0 187 424" fill="none" xmlns="http://www.w3.org/2000/svg">
<path d="M92.1501 288.03L97.8782 300.006L146.795 283.612L138.341 265.937L92.1501 288.03Z" fill="#FFB8B8"/>
<path d="M97.8044 328.42L79.8026 290.783L94.3444 283.828L105.923 308.035C107.626 311.597 107.845 315.69 106.531 319.413C105.217 323.136 102.478 326.185 98.9165 327.888L97.8044 328.42V328.42Z" fill="black"/>
<path d="M80.6191 394.975L93.8861 394.527L94.4441 342.883L78.8921 343.801L80.6191 394.975Z" fill="#FFB8B8"/>
<path d="M119.629 406.691H77.9079V390.572H104.742C108.69 390.572 112.477 392.14 115.269 394.932C118.061 397.724 119.629 401.51 119.629 405.459V406.691V406.691Z" fill="black"/>
<path d="M81.7105 387.217C80.5979 387.217 79.5174 386.844 78.6417 386.157C77.7661 385.471 77.1459 384.511 76.8802 383.431C69.6123 354.229 42.5688 207.098 66.4831 178.201L66.6916 177.949L67.008 177.869C68.687 177.444 100.333 167.646 118.902 182.939L119.119 183.118L129.453 213.033L157.312 254.388C158.838 256.652 159.893 259.2 160.416 261.88C160.939 264.56 160.918 267.318 160.356 269.99C159.793 272.662 158.7 275.194 157.141 277.436C155.581 279.678 153.588 281.584 151.279 283.041L114.697 306.127C113.813 306.66 112.786 306.908 111.756 306.835C110.726 306.763 109.744 306.374 108.944 305.722C108.272 305.165 107.755 304.445 107.444 303.63L99.7555 284.41C99.2967 283.245 99.2891 281.95 99.7342 280.78C100.179 279.609 101.045 278.647 102.162 278.081L119.301 269.511C119.771 269.252 120.177 268.894 120.494 268.462C120.81 268.029 121.027 267.533 121.131 267.007C121.178 266.532 121.109 266.052 120.93 265.609C120.75 265.166 120.467 264.773 120.103 264.464L100.207 247.313C99.7644 246.931 99.2203 246.687 98.6413 246.611C98.0622 246.534 97.4734 246.628 96.947 246.882C96.4207 247.135 95.9798 247.536 95.6784 248.037C95.3769 248.537 95.2281 249.114 95.2502 249.698L100.182 379.901C100.228 381.123 99.8242 382.32 99.0472 383.265C98.2702 384.21 97.1739 384.837 95.9655 385.029L82.5095 387.153C82.2453 387.196 81.9781 387.217 81.7105 387.217Z" fill="#2F2E41"/>
<path d="M116.031 188.246C115.919 188.246 115.805 188.242 115.692 188.234L66.0757 184.558C65.387 184.508 64.7191 184.3 64.1238 183.951C63.5285 183.601 63.0219 183.118 62.6433 182.541C62.2647 181.963 62.0243 181.306 61.9408 180.621C61.8573 179.935 61.9328 179.24 62.1616 178.588C65.2138 169.789 65.5883 160.282 63.2376 151.27C60.0059 138.528 59.9297 114.837 60.1717 101.849C60.2267 99.6472 61.1097 97.5471 62.6447 95.9675C64.1796 94.3879 66.2536 93.4451 68.4529 93.327L68.4532 93.3094L69.4532 93.3217C77.5357 93.4349 92.3687 94.0116 104.506 96.537C108.597 97.3837 112.277 99.5977 114.942 102.815C117.606 106.032 119.096 110.06 119.166 114.237C119.44 126.295 119.481 142.616 118.113 151.894C116.958 159.721 119.091 174.752 120.464 183.016C120.57 183.659 120.536 184.318 120.362 184.947C120.188 185.575 119.88 186.159 119.458 186.657C119.036 187.154 118.511 187.554 117.92 187.829C117.328 188.103 116.684 188.246 116.031 188.246H116.031Z" fill="#3F3D56"/>
<path d="M133.744 235.544C132.422 234.911 131.255 233.996 130.325 232.863C129.395 231.73 128.725 230.408 128.362 228.988C127.999 227.568 127.951 226.086 128.223 224.646C128.494 223.205 129.078 221.842 129.933 220.652L107.018 121.834H124.342L144.567 218.704C146.471 220.274 147.733 222.487 148.114 224.925C148.495 227.363 147.969 229.856 146.635 231.931C145.301 234.007 143.252 235.521 140.876 236.187C138.5 236.853 135.962 236.624 133.744 235.544H133.744Z" fill="#FFB8B8"/>
<path d="M25.2137 132.539L52.6491 106.586L62.9849 121.056L37.1454 143.795L71.0326 170.705C71.2773 170.689 71.5211 170.668 71.7704 170.668C73.8557 170.666 75.8974 171.265 77.6513 172.393C79.4051 173.521 80.7969 175.13 81.6601 177.028C82.5232 178.927 82.8213 181.033 82.5185 183.097C82.2157 185.16 81.3249 187.092 79.9527 188.662C78.5805 190.232 76.785 191.374 74.781 191.95C72.777 192.527 70.6494 192.514 68.6526 191.913C66.6558 191.312 64.8746 190.148 63.5218 188.561C62.1691 186.974 61.3021 185.031 61.0248 182.964L60.9178 183.071L25.6484 152.504C24.2267 151.272 23.0788 149.756 22.2787 148.053C21.4786 146.35 21.0441 144.499 21.0032 142.618C20.9622 140.737 21.3158 138.868 22.041 137.132C22.7662 135.396 23.8469 133.832 25.2137 132.539V132.539Z" fill="#FFB8B8"/>
<path d="M108.843 128.166C107.995 128.168 107.164 127.93 106.446 127.478C105.728 127.025 105.154 126.378 104.791 125.612C102.605 120.997 101.1 116.089 100.323 111.042C99.1329 102.798 104.865 97.8934 110.695 96.825C116.366 95.7855 123.273 98.2786 125.038 106.208C125.186 106.879 125.301 107.557 125.38 108.24C126.087 114.251 126.753 118.926 127.358 122.136C127.476 122.767 127.459 123.416 127.305 124.04C127.152 124.663 126.867 125.247 126.469 125.751C126.071 126.255 125.57 126.668 124.999 126.962C124.428 127.256 123.801 127.425 123.159 127.456L109.073 128.16C108.996 128.164 108.92 128.166 108.843 128.166Z" fill="#3F3D56"/>
<path d="M89.199 84.8153C105.768 84.8153 119.199 71.3839 119.199 54.8153C119.199 38.2468 105.768 24.8153 89.199 24.8153C72.6304 24.8153 59.199 38.2468 59.199 54.8153C59.199 71.3839 72.6304 84.8153 89.199 84.8153Z" fill="#2F2E41"/>
<path d="M89.3801 87.1638C102.945 87.1638 113.941 76.1675 113.941 62.6028C113.941 49.0381 102.945 38.0417 89.3801 38.0417C75.8154 38.0417 64.8191 49.0381 64.8191 62.6028C64.8191 76.1675 75.8154 87.1638 89.3801 87.1638Z" fill="#FFB8B8"/>
<path d="M45.7869 116.213C45.1598 115.642 44.7082 114.904 44.4847 114.086C44.2612 113.268 44.275 112.403 44.5247 111.592C46.0314 106.713 48.2379 102.078 51.0752 97.8318C55.768 90.95 63.3077 91.2074 68.3273 94.3585C73.2102 97.4235 76.6177 103.928 72.5621 110.967C72.2179 111.562 71.8438 112.139 71.4414 112.696C67.9014 117.605 65.2333 121.501 63.5107 124.276C63.1718 124.822 62.72 125.288 62.1856 125.645C61.6512 126.001 61.0467 126.238 60.4128 126.341C59.7789 126.444 59.1303 126.41 58.5107 126.241C57.8911 126.072 57.3149 125.772 56.8209 125.362L45.9604 116.364C45.901 116.315 45.8433 116.264 45.7869 116.213Z" fill="#3F3D56"/>
<path d="M83.3718 28.0228C77.335 24.4208 76.028 15.451 79.6245 9.41096C83.221 3.37092 90.4894 0.220194 97.516 0.0125345C107.553 -0.284096 117.246 4.71344 124.272 11.8875C131.298 19.0616 135.934 28.2449 139.466 37.6443C142.999 47.0437 145.535 56.7923 149.016 66.2109C150.803 71.044 153.002 76.0066 157.089 79.1451C161.175 82.2836 167.672 82.8498 171.165 79.0621C171.152 85.1232 166.505 90.633 160.742 92.5096C154.978 94.3862 148.459 92.969 143.407 89.6208C134.642 83.8124 130.41 73.2095 127.991 62.9768C125.572 52.744 124.381 42.0214 119.517 32.699C117.502 28.8364 114.741 25.1673 110.856 23.1964C106.97 21.2255 101.794 21.3549 98.6691 24.3901C97.2215 25.7959 96.2841 27.7128 94.6413 28.8847C93.6018 29.5348 92.4275 29.9388 91.208 30.0658C89.9885 30.1927 88.7561 30.0394 87.605 29.6173C85.3122 28.7552 83.1662 27.5443 81.2429 26.0274" fill="#2F2E41"/>
<path d="M63.73 46.0075C66.0969 49.1901 69.0836 51.8606 72.5102 53.858C75.9368 55.8554 79.7323 57.1383 83.668 57.6296C87.6037 58.1209 91.5981 57.8102 95.4106 56.7164C99.223 55.6226 102.775 53.7683 105.851 51.2651C108.236 49.3248 110.451 46.6509 110.301 43.5802C110.148 40.4349 107.577 37.9646 104.952 36.2249C98.0472 31.6862 89.742 29.7779 81.5483 30.8473C76.8733 31.4756 72.1844 33.1795 68.8737 36.5395C65.5629 39.8995 63.9133 45.1252 65.621 49.5223" fill="#2F2E41"/>
<path d="M180.738 408.106H9V406H181.12L180.738 408.106Z" fill="black"/>
<path d="M180.895 423.067C180.804 423.567 180.368 423.932 179.859 423.932H10.053C9.47143 423.932 9 423.46 9 422.879V422.879C9 422.297 9.47143 421.826 10.053 421.826H179.859C180.516 421.826 181.012 422.42 180.895 423.067V423.067Z" fill="black"/>
<path d="M186.786 415.033C186.674 418.817 183.575 421.826 179.789 421.826H7C3.13401 421.826 0 418.692 0 414.826V414.826C0 410.96 3.13401 407.826 7 407.826H179.789C183.737 407.826 186.903 411.088 186.786 415.033V415.033Z" fill="#333333"/>
</svg>
