<svg width="187" height="434" viewBox="0 0 187 434" fill="none" xmlns="http://www.w3.org/2000/svg">
<path d="M105.226 78.9956C105.226 78.9956 79.1877 72.9956 64.8667 83.9956C50.5457 94.9956 83.0934 119.996 83.0934 119.996L105.226 78.9956Z" fill="white"/>
<path d="M132.153 222.479C131.631 221.104 131.417 219.632 131.526 218.166C131.635 216.7 132.064 215.276 132.783 213.993C133.502 212.711 134.493 211.602 135.687 210.744C136.881 209.886 138.248 209.301 139.693 209.028L144.955 173.683L158.783 186.078L151.666 217.742C151.962 220.199 151.347 222.68 149.936 224.714C148.526 226.747 146.419 228.193 144.013 228.777C141.608 229.361 139.072 229.042 136.886 227.882C134.7 226.721 133.016 224.798 132.153 222.479H132.153Z" fill="#FFB8B8"/>
<path d="M77.648 405.967L89.881 405.155L92.571 357.585L74.517 358.783L77.648 405.967Z" fill="#FFB8B8"/>
<path d="M113.776 416.241H75.2454V401.354H98.8893C102.837 401.354 106.624 402.923 109.416 405.715C112.208 408.506 113.776 412.293 113.776 416.241V416.241V416.241Z" fill="black"/>
<path d="M98.7891 389.033L110.29 393.278L132.139 350.936L115.164 344.671L98.7891 389.033Z" fill="#FFB8B8"/>
<path d="M128.529 412.146L92.3826 398.803L97.5377 384.837L119.719 393.025C123.423 394.392 126.432 397.175 128.084 400.761C129.736 404.346 129.897 408.442 128.529 412.146V412.146L128.529 412.146Z" fill="black"/>
<path d="M132.231 206.283C132.231 206.283 144.619 212.953 140.808 239.637L136.996 340.651L115.936 386.701L97.8299 381.936L109.36 344.463L94.1121 278.708L92.1121 398.136L74.9587 400.995L50.2755 202.471L81.7235 188.176L132.231 206.283Z" fill="#2F2E41"/>
<path d="M87.9502 67.6589C101.515 67.6589 112.511 56.6626 112.511 43.0979C112.511 29.5332 101.515 18.5369 87.9502 18.5369C74.3855 18.5369 63.3892 29.5332 63.3892 43.0979C63.3892 56.6626 74.3855 67.6589 87.9502 67.6589Z" fill="#FFB8B8"/>
<path d="M102.212 74.2966L89.8237 94.309L71.7173 76.2026L37.8676 99.8974C36.68 100.726 35.8086 101.934 35.3957 103.322C34.9828 104.71 35.0528 106.197 35.5943 107.541C40.8011 120.416 54.1349 158.474 50.2754 202.471C50.2754 202.471 76.0056 195.8 102.689 203.424C129.372 211.048 136.043 208.189 136.043 208.189C136.043 208.189 129.372 159.587 133.184 149.105C136.346 140.41 142.786 111.388 144.89 101.744C145.089 100.833 144.989 99.882 144.606 99.032C144.223 98.182 143.577 97.4777 142.763 97.023L102.212 74.2966Z" fill="#3F3D56"/>
<path d="M141.781 97.1388C142.829 96.9891 143.896 97.2261 144.782 97.8057C145.667 98.3852 146.312 99.2675 146.594 100.288L162.726 158.54L158.914 193.8L140.807 190.941L142.713 166.164L129.372 134.716L138.179 100.368C138.393 99.534 138.849 98.782 139.49 98.2071C140.132 97.6323 140.929 97.2605 141.781 97.1388V97.1388Z" fill="#3F3D56"/>
<path d="M68.9579 8.62009C70.5957 5.84014 72.9699 3.56688 75.8183 2.05136C78.6667 0.535836 81.8785 -0.163008 85.0991 0.0320126C88.4679 0.454484 91.7554 1.37472 94.854 2.7626L110.91 9.02579C115.065 10.6465 119.615 12.6317 121.418 16.7106C123.091 20.4964 121.843 24.8687 120.579 28.8102L114.572 47.5458C113.906 43.3054 112.765 39.1537 111.168 35.1695C109.423 31.2522 106.663 27.6401 102.847 25.6827C98.6768 23.5432 93.7612 23.5875 89.0792 23.8128C82.4484 24.1319 75.2388 24.9756 70.5276 29.6525C68.0267 32.3086 66.3311 35.62 65.6381 39.2018C64.956 42.7645 64.6127 46.3837 64.6128 50.011C61.8937 45.337 59.6032 40.4265 57.7693 35.3396C56.2609 31.5518 55.4013 27.5369 55.2266 23.4636C55.069 19.3553 56.4321 15.3333 59.055 12.1674C61.7675 9.13572 66.1874 7.499 70.0744 8.69922" fill="#2F2E41"/>
<path d="M55.2988 236.479C55.8204 235.104 56.0344 233.632 55.9255 232.166C55.8167 230.7 55.3878 229.276 54.6689 227.993C53.9501 226.711 52.9588 225.602 51.765 224.744C50.5711 223.886 49.2036 223.301 47.759 223.028L42.4968 187.683L28.6688 200.078L35.7858 231.742C35.4895 234.199 36.1048 236.68 37.5152 238.714C38.9257 240.747 41.0331 242.193 43.4384 242.777C45.8436 243.361 48.3794 243.042 50.5654 241.882C52.7513 240.721 54.4355 238.798 55.2988 236.479V236.479Z" fill="#FFB8B8"/>
<path d="M38.215 99.5604C36.7718 99.8009 35.4543 100.528 34.481 101.62C33.5077 102.712 32.9372 104.105 32.8642 105.566L27.4042 214.766H47.4165L54.0873 156.634L45.5979 104.849C45.4614 104.016 45.162 103.219 44.7169 102.502C44.2717 101.786 43.6895 101.164 43.0037 100.673C42.3179 100.181 41.5419 99.8303 40.7202 99.6394C39.8984 99.4486 39.0471 99.4217 38.215 99.5604V99.5604Z" fill="#3F3D56"/>
<path d="M180.738 417.28H9V415.174H181.12L180.738 417.28Z" fill="black"/>
<path d="M180.895 432.241C180.804 432.742 180.368 433.106 179.859 433.106H10.053C9.47143 433.106 9 432.635 9 432.053V432.053C9 431.471 9.47143 431 10.053 431H179.859C180.516 431 181.012 431.595 180.895 432.241V432.241Z" fill="black"/>
<path d="M186.786 424.207C186.674 427.991 183.575 431 179.789 431H7C3.13401 431 0 427.866 0 424V424C0 420.134 3.13401 417 7 417H179.789C183.737 417 186.903 420.262 186.786 424.207V424.207Z" fill="#333333"/>
</svg>
